<svg width="11" height="13" viewBox="0 0 11 13" fill="none" xmlns="http://www.w3.org/2000/svg">
<g filter="url(#filter0_i)">
<path d="M6.24 8.54C5.952 8.484 5.688 8.4 5.448 8.288C5.208 8.168 4.988 8.04 4.788 7.904C4.588 7.76 4.408 7.612 4.248 7.46C4.088 7.3 3.948 7.148 3.828 7.004L2.652 5.552C2.516 5.392 2.368 5.2 2.208 4.976C2.056 4.752 1.912 4.532 1.776 4.316C1.8 4.516 1.82 4.728 1.836 4.952C1.86 5.168 1.872 5.368 1.872 5.552V11H1.14V2.684H1.368L4.56 6.752C4.616 6.84 4.7 6.936 4.812 7.04L8.4 2.684H8.628V11H7.896V5.552C7.896 5.352 7.904 5.128 7.92 4.88C7.944 4.624 7.968 4.392 7.992 4.184C7.824 4.416 7.648 4.66 7.464 4.916C7.28 5.164 7.112 5.376 6.96 5.552L5.328 7.484C5.488 7.596 5.656 7.7 5.832 7.796C6.016 7.884 6.212 7.952 6.42 8L6.24 8.54Z" fill="#C4C4C4"/>
<path d="M6.24 8.54C5.952 8.484 5.688 8.4 5.448 8.288C5.208 8.168 4.988 8.04 4.788 7.904C4.588 7.76 4.408 7.612 4.248 7.46C4.088 7.3 3.948 7.148 3.828 7.004L2.652 5.552C2.516 5.392 2.368 5.2 2.208 4.976C2.056 4.752 1.912 4.532 1.776 4.316C1.8 4.516 1.82 4.728 1.836 4.952C1.86 5.168 1.872 5.368 1.872 5.552V11H1.14V2.684H1.368L4.56 6.752C4.616 6.84 4.7 6.936 4.812 7.04L8.4 2.684H8.628V11H7.896V5.552C7.896 5.352 7.904 5.128 7.92 4.88C7.944 4.624 7.968 4.392 7.992 4.184C7.824 4.416 7.648 4.66 7.464 4.916C7.28 5.164 7.112 5.376 6.96 5.552L5.328 7.484C5.488 7.596 5.656 7.7 5.832 7.796C6.016 7.884 6.212 7.952 6.42 8L6.24 8.54Z" fill="#F80000" fill-opacity="0.64"/>
</g>
<g filter="url(#filter1_i)">
<path d="M5.072 3.368C4.592 3.368 4.224 3.484 3.968 3.716C3.712 3.94 3.584 4.22 3.584 4.556C3.584 4.852 3.64 5.1 3.752 5.3C3.864 5.5 4.012 5.668 4.196 5.804C4.38 5.94 4.588 6.056 4.82 6.152C5.06 6.248 5.308 6.34 5.564 6.428C5.836 6.524 6.112 6.64 6.392 6.776C6.672 6.904 6.924 7.068 7.148 7.268C7.372 7.46 7.552 7.696 7.688 7.976C7.832 8.248 7.904 8.58 7.904 8.972C7.904 9.364 7.824 9.696 7.664 9.968C7.504 10.24 7.292 10.464 7.028 10.64C6.772 10.808 6.476 10.928 6.14 11C5.804 11.08 5.46 11.12 5.108 11.12C4.588 11.12 4.092 11.036 3.62 10.868C3.156 10.692 2.756 10.48 2.42 10.232L2.816 9.656C2.968 9.752 3.132 9.848 3.308 9.944C3.484 10.032 3.672 10.116 3.872 10.196C4.08 10.276 4.296 10.34 4.52 10.388C4.744 10.436 4.984 10.46 5.24 10.46C5.496 10.46 5.74 10.436 5.972 10.388C6.204 10.332 6.408 10.248 6.584 10.136C6.76 10.016 6.9 9.864 7.004 9.68C7.108 9.488 7.16 9.252 7.16 8.972C7.16 8.684 7.104 8.44 6.992 8.24C6.88 8.032 6.732 7.856 6.548 7.712C6.364 7.56 6.152 7.432 5.912 7.328C5.672 7.216 5.424 7.112 5.168 7.016C4.896 6.912 4.62 6.804 4.34 6.692C4.068 6.572 3.82 6.424 3.596 6.248C3.372 6.064 3.188 5.84 3.044 5.576C2.908 5.304 2.84 4.964 2.84 4.556C2.84 4.308 2.892 4.072 2.996 3.848C3.108 3.624 3.264 3.428 3.464 3.26C3.672 3.092 3.92 2.96 4.208 2.864C4.504 2.76 4.832 2.708 5.192 2.708C5.432 2.708 5.644 2.712 5.828 2.72C6.012 2.728 6.16 2.732 6.272 2.732C6.544 2.732 6.756 2.704 6.908 2.648C7.068 2.584 7.232 2.472 7.4 2.312L7.796 2.72C7.684 2.872 7.572 2.992 7.46 3.08C7.348 3.168 7.228 3.236 7.1 3.284C6.98 3.332 6.852 3.364 6.716 3.38C6.58 3.388 6.432 3.392 6.272 3.392C6.136 3.392 5.96 3.388 5.744 3.38C5.528 3.372 5.304 3.368 5.072 3.368Z" fill="#C4C4C4"/>
<path d="M5.072 3.368C4.592 3.368 4.224 3.484 3.968 3.716C3.712 3.94 3.584 4.22 3.584 4.556C3.584 4.852 3.64 5.1 3.752 5.3C3.864 5.5 4.012 5.668 4.196 5.804C4.38 5.94 4.588 6.056 4.82 6.152C5.06 6.248 5.308 6.34 5.564 6.428C5.836 6.524 6.112 6.64 6.392 6.776C6.672 6.904 6.924 7.068 7.148 7.268C7.372 7.46 7.552 7.696 7.688 7.976C7.832 8.248 7.904 8.58 7.904 8.972C7.904 9.364 7.824 9.696 7.664 9.968C7.504 10.24 7.292 10.464 7.028 10.64C6.772 10.808 6.476 10.928 6.14 11C5.804 11.08 5.46 11.12 5.108 11.12C4.588 11.12 4.092 11.036 3.62 10.868C3.156 10.692 2.756 10.48 2.42 10.232L2.816 9.656C2.968 9.752 3.132 9.848 3.308 9.944C3.484 10.032 3.672 10.116 3.872 10.196C4.08 10.276 4.296 10.34 4.52 10.388C4.744 10.436 4.984 10.46 5.24 10.46C5.496 10.46 5.74 10.436 5.972 10.388C6.204 10.332 6.408 10.248 6.584 10.136C6.76 10.016 6.9 9.864 7.004 9.68C7.108 9.488 7.16 9.252 7.16 8.972C7.16 8.684 7.104 8.44 6.992 8.24C6.88 8.032 6.732 7.856 6.548 7.712C6.364 7.56 6.152 7.432 5.912 7.328C5.672 7.216 5.424 7.112 5.168 7.016C4.896 6.912 4.62 6.804 4.34 6.692C4.068 6.572 3.82 6.424 3.596 6.248C3.372 6.064 3.188 5.84 3.044 5.576C2.908 5.304 2.84 4.964 2.84 4.556C2.84 4.308 2.892 4.072 2.996 3.848C3.108 3.624 3.264 3.428 3.464 3.26C3.672 3.092 3.92 2.96 4.208 2.864C4.504 2.76 4.832 2.708 5.192 2.708C5.432 2.708 5.644 2.712 5.828 2.72C6.012 2.728 6.16 2.732 6.272 2.732C6.544 2.732 6.756 2.704 6.908 2.648C7.068 2.584 7.232 2.472 7.4 2.312L7.796 2.72C7.684 2.872 7.572 2.992 7.46 3.08C7.348 3.168 7.228 3.236 7.1 3.284C6.98 3.332 6.852 3.364 6.716 3.38C6.58 3.388 6.432 3.392 6.272 3.392C6.136 3.392 5.96 3.388 5.744 3.38C5.528 3.372 5.304 3.368 5.072 3.368Z" fill="#F80000" fill-opacity="0.64"/>
</g>
<defs>
<filter id="filter0_i" x="1.14" y="2.68401" width="7.488" height="12.316" filterUnits="userSpaceOnUse" color-interpolation-filters="sRGB">
<feFlood flood-opacity="0" result="BackgroundImageFix"/>
<feBlend mode="normal" in="SourceGraphic" in2="BackgroundImageFix" result="shape"/>
<feColorMatrix in="SourceAlpha" type="matrix" values="0 0 0 0 0 0 0 0 0 0 0 0 0 0 0 0 0 0 127 0" result="hardAlpha"/>
<feOffset dy="4"/>
<feGaussianBlur stdDeviation="2"/>
<feComposite in2="hardAlpha" operator="arithmetic" k2="-1" k3="1"/>
<feColorMatrix type="matrix" values="0 0 0 0 0 0 0 0 0 0 0 0 0 0 0 0 0 0 0.25 0"/>
<feBlend mode="normal" in2="shape" result="effect1_innerShadow"/>
</filter>
<filter id="filter1_i" x="2.42" y="2.312" width="5.484" height="12.808" filterUnits="userSpaceOnUse" color-interpolation-filters="sRGB">
<feFlood flood-opacity="0" result="BackgroundImageFix"/>
<feBlend mode="normal" in="SourceGraphic" in2="BackgroundImageFix" result="shape"/>
<feColorMatrix in="SourceAlpha" type="matrix" values="0 0 0 0 0 0 0 0 0 0 0 0 0 0 0 0 0 0 127 0" result="hardAlpha"/>
<feOffset dy="4"/>
<feGaussianBlur stdDeviation="2"/>
<feComposite in2="hardAlpha" operator="arithmetic" k2="-1" k3="1"/>
<feColorMatrix type="matrix" values="0 0 0 0 0 0 0 0 0 0 0 0 0 0 0 0 0 0 0.25 0"/>
<feBlend mode="normal" in2="shape" result="effect1_innerShadow"/>
</filter>
</defs>
</svg>
